<?xml version="1.0" encoding="UTF-8"?>
<!DOCTYPE svg PUBLIC "-//W3C//DTD SVG 1.1//EN" "http://www.w3.org/Graphics/SVG/1.1/DTD/svg11.dtd">
<!-- Creator: CorelDRAW -->
<svg xmlns="http://www.w3.org/2000/svg" xml:space="preserve" version="1.1" style="shape-rendering:geometricPrecision; text-rendering:geometricPrecision; image-rendering:optimizeQuality; fill-rule:evenodd; clip-rule:evenodd"
viewBox="8.57 19.54 127.55 127.55"
 xmlns:xlink="http://www.w3.org/1999/xlink"
 xmlns:xodm="http://www.corel.com/coreldraw/odm/2003">
 <defs>
  <style type="text/css">
   <![CDATA[
    .fil0 {fill:#FFFFFF;fill-rule:nonzero}
    .fil1 {fill:#B8B8B8;fill-rule:nonzero}
   ]]>
  </style>
 </defs>
 <g id="Layer_x0020_1">
  <metadata id="CorelCorpID_0Corel-Layer"/>
  <g id="_2719647163568">
   <path class="fil0" d="M80.6467 31.6957l9.9308 5.7311c0,4.6624 -0.0022,9.3204 -0.0011,13.9506 4.0285,-2.3249 8.0539,-4.6504 12.0825,-6.9748l10.2132 5.8984 -13.9179 8.037 0.0115 5.9451 21.638 -12.4881 0.0022 -2.9794 -17.9568 -10.3641 -6.8556 3.8876c-0.0266,-2.6168 -0.0348,-5.2711 -0.068,-7.8862 -5.8804,-3.3986 -11.764,-6.7951 -17.6454,-10.1888l-2.5759 1.4804c0,7.418 -0.0479,14.8381 -0.0311,22.2566l6.3584 3.6665 0.0763 0.2216c0.0816,0.2156 0.1845,0.4258 0.3103,0.6283 0.1535,0.2461 0.3343,0.4721 0.5385,0.6697 0.2031,0.1961 0.4339,0.3725 0.6866,0.52l0.0065 0.0022c0.4127,0.2385 0.8559,0.3839 1.3073,0.4448 0.4639,0.0599 0.9327,0.0256 1.377,-0.092 0.441,-0.1192 0.8602,-0.3256 1.2354,-0.6103 0.3621,-0.2783 0.6713,-0.6289 0.9093,-1.0394 0.2395,-0.4166 0.3855,-0.8598 0.4437,-1.3019 0.0632,-0.4677 0.031,-0.9414 -0.0898,-1.3835 -0.1187,-0.4405 -0.3245,-0.8608 -0.6087,-1.2354 -0.2777,-0.3583 -0.6262,-0.6725 -1.0384,-0.9115 -0.2564,-0.1454 -0.5232,-0.2581 -0.7949,-0.3354 -0.281,-0.0789 -0.5673,-0.1236 -0.851,-0.1328 -0.2341,-0.0071 -0.4693,0.007 -0.6959,0.0468l-0.2341 0.0436 -3.7835 -2.1845c-0.006,-4.4467 -0.0039,-8.8782 0.0206,-13.3223l0 0.0001z"/>
   <path class="fil0" d="M104.4921 68.4369l0.0043 7.339 -0.1562 0.1775c-0.1449,0.1775 -0.2744,0.3735 -0.3872,0.5837 -0.1382,0.2554 -0.2417,0.5265 -0.3125,0.8015 -0.0669,0.2733 -0.1051,0.5586 -0.1051,0.8537l0.0011 0.0066c0.0011,0.4748 0.0948,0.9343 0.269,1.353 0.1797,0.4334 0.4421,0.8216 0.7661,1.1483 0.3239,0.3218 0.7143,0.5826 1.1477,0.7634 0.4198,0.1753 0.8777,0.27 1.3541,0.2662 0.4814,0.0022 0.9376,-0.0925 1.3493,-0.2651 0.4394,-0.1792 0.8298,-0.4416 1.1543,-0.7694 0.3228,-0.3229 0.5847,-0.71 0.7633,-1.1445 0.1743,-0.417 0.2695,-0.8782 0.2717,-1.3541 0.0006,-0.2929 -0.0381,-0.5804 -0.1078,-0.857 -0.0713,-0.2826 -0.1753,-0.5504 -0.3103,-0.802 -0.1095,-0.2085 -0.2418,-0.4035 -0.3866,-0.582l-0.1568 -0.1786 0.0033 -4.3689c3.844,-2.2296 7.6945,-4.4598 11.5412,-6.69l0.0011 11.6235c-4.0258,2.3233 -8.0555,4.6466 -12.0787,6.9736l12.076 6.9715 0.0011 11.6306 -13.9228 -8.0381 -5.1421 2.9799 21.643 12.4979 2.5743 -1.4858c0.0228,-6.8626 -0.1041,-13.7225 0.0152,-20.5873l-6.8168 -3.9703 6.8026 -3.9932 0.0011 -20.5556 -2.5764 -1.4924c-6.4308,3.7188 -12.8579,7.4332 -19.28,11.1645l-0.0005 -0.0001z"/>
   <path class="fil0" d="M48.7328 42.4306c0.0277,-2.6293 0.0473,-5.2581 0.0582,-7.8873 5.9316,-3.4308 11.868,-6.8534 17.8012,-10.2776l2.5759 1.4859 0.0005 26.4186 -5.1556 -2.9794 -0.0011 -17.4843 -10.0674 5.8118c0.0011,4.6362 0.0011,9.4151 0.0011,13.9413l-12.0765 -6.9715 -10.069 5.8123c3.8554,2.2291 7.7076,4.4332 11.5701,6.659l3.783 -2.1861 0.0774 -0.2249c0.0816,-0.2156 0.1845,-0.4274 0.3109,-0.6261 0.1502,-0.2418 0.3299,-0.465 0.5401,-0.6681 0.2042,-0.1998 0.435,-0.3757 0.6866,-0.5221 0.4138,-0.2391 0.8591,-0.3839 1.3078,-0.4432 0.4661,-0.0599 0.9343,-0.0278 1.3748,0.0887 0.4454,0.1176 0.8679,0.3245 1.2447,0.6142 0.3533,0.2733 0.6642,0.6196 0.9049,1.0367 0.239,0.4105 0.3855,0.8548 0.4448,1.3051 0.061,0.4666 0.0289,0.936 -0.0871,1.377 -0.1209,0.4437 -0.3272,0.8646 -0.612,1.2387 -0.276,0.3588 -0.6239,0.6708 -1.0383,0.9082l-0.0022 0.0038c-0.2559,0.147 -0.5243,0.258 -0.7949,0.3364 -0.2728,0.0774 -0.5586,0.122 -0.8483,0.1313 -0.2396,0.0081 -0.4737,-0.0077 -0.7002,-0.0452l-0.2297 -0.0463 -6.3535 3.673c-6.4417,-3.6943 -12.8834,-7.3961 -19.3088,-11.1187l0.0027 -2.9767 17.7957 -10.2765 6.8642 3.8914 0 0.0006z"/>
   <path class="fil0" d="M45.7256 108.2845l-13.9212 8.0364 10.0707 5.8151 12.071 -6.9987 0.0011 13.9734 10.0875 5.8237c0.0365,-4.4538 0.0311,-8.8624 0.0246,-13.3179l-3.7841 -2.1855 -0.2331 0.0474c-0.2265,0.0375 -0.4628,0.0528 -0.6969,0.0441 -0.2842,-0.0098 -0.569,-0.0534 -0.8505,-0.1329 -0.2722,-0.0773 -0.5407,-0.1911 -0.7949,-0.3359 -0.4111,-0.2374 -0.7617,-0.5494 -1.0378,-0.9104 -0.2853,-0.3724 -0.4917,-0.7938 -0.6098,-1.2349 -0.1198,-0.4448 -0.1508,-0.9158 -0.0888,-1.3846 0.0583,-0.4421 0.2037,-0.8837 0.4449,-1.3013 0.2357,-0.4127 0.5466,-0.7612 0.9082,-1.0383 0.3729,-0.2864 0.7938,-0.4911 1.2354,-0.6104 0.4459,-0.1208 0.9136,-0.1513 1.3786,-0.0909 0.4476,0.0588 0.8929,0.2053 1.3073,0.4421l0.0033 0.0038c0.2537,0.1449 0.4851,0.3229 0.6876,0.5189 0.2042,0.1966 0.3855,0.4225 0.5396,0.6703 0.1252,0.2009 0.2298,0.4121 0.3103,0.6277l0.0746 0.2233 6.359 3.6676c0.019,7.2829 0.0163,14.4373 -0.0436,21.7104l-0.0038 0.5374 -2.5705 1.4783 -17.7984 -10.2765 -0.0631 -7.8856 -6.8593 3.8875c-5.7775,-3.3382 -11.5549,-6.6796 -17.3389,-10.0053l-0.4661 -0.2689 0.0022 -2.974 0.465 -0.2722c7.0635,-4.0852 14.1314,-8.165 21.1976,-12.2447 0.0011,1.9879 0,3.9725 -0.0082,5.9615l0.0005 0z"/>
   <path class="fil0" d="M23.4805 64.7111l0 11.6284 12.1015 6.9611 -12.1031 6.9862 -0.0006 11.6213c3.8527,-2.234 7.6973,-4.4685 11.55,-6.7019l0 -4.3689 -0.1573 -0.1797c-0.1459,-0.1786 -0.2761,-0.3746 -0.3855,-0.582 -0.1351,-0.2494 -0.239,-0.5189 -0.3098,-0.8031 -0.0697,-0.2756 -0.1062,-0.563 -0.1073,-0.857 0,-0.4759 0.0969,-0.9338 0.2722,-1.3542 0.1786,-0.4334 0.4405,-0.821 0.7618,-1.1444 0.3256,-0.3256 0.7165,-0.5886 1.1548,-0.7683 0.4127,-0.1732 0.8679,-0.2657 1.3476,-0.2657 0.4775,-0.0044 0.9354,0.092 1.3552,0.2657 0.4339,0.1808 0.8248,0.4416 1.1477,0.7645 0.3245,0.3266 0.5881,0.7154 0.7661,1.1461 0.1732,0.4198 0.2701,0.8777 0.2712,1.3563l-0.0011 0.0049c0,0.2929 -0.0371,0.5804 -0.1051,0.8537 -0.0692,0.2755 -0.1743,0.5467 -0.3104,0.8015 -0.1132,0.2107 -0.2439,0.4062 -0.3876,0.5837l-0.1552 0.1764 0.0022 7.3406c-6.4238,3.7319 -12.8551,7.4512 -19.2827,11.1765l-2.5786 -1.4881c0.0082,-6.8429 0.0174,-13.6854 -0.0022,-20.5284l6.8005 -4.028c-2.2487,-1.3291 -4.5311,-2.6892 -6.7983,-3.9889l0 -20.5572 2.5748 -1.4903c7.2214,4.1631 14.4406,8.3278 21.6587,12.4958l-5.1349 2.9804c-4.6493,-2.6782 -9.2975,-5.356 -13.9441,-8.0381l-0.0005 0.0011z"/>
   <path class="fil0" d="M80.6614 118.8462l-0.0011 16.0746 10.0669 -5.8128 0.0016 -13.9468 12.0803 6.9737 10.0641 -5.8074c-3.8565,-2.2204 -7.712,-4.4375 -11.5679,-6.6546l-3.7836 2.1839 -0.0773 0.2243c-0.0812,0.2167 -0.1862,0.4274 -0.3104,0.6261 -0.1492,0.2434 -0.331,0.4677 -0.539,0.6697 -0.2042,0.1966 -0.4361,0.3735 -0.6888,0.5211 -0.4122,0.2379 -0.8575,0.3844 -1.3073,0.4421 -0.466,0.0621 -0.9337,0.0289 -1.3742,-0.0876 -0.4459,-0.1187 -0.8701,-0.3267 -1.2436,-0.6153 -0.355,-0.2722 -0.6637,-0.6191 -0.9044,-1.0345 -0.2396,-0.4111 -0.386,-0.8559 -0.4459,-1.3073 -0.061,-0.466 -0.0299,-0.9354 0.0866,-1.3759 0.1203,-0.4421 0.3277,-0.8673 0.612,-1.2381 0.2744,-0.3588 0.6239,-0.6724 1.0367,-0.9098l0.0054 -0.0038c0.2548,-0.1454 0.5216,-0.257 0.7928,-0.3343 0.2738,-0.0784 0.5597,-0.1225 0.8493,-0.1329 0.238,-0.0082 0.4732,0.0082 0.6992,0.0463l0.2308 0.0441 6.3551 -3.6714c6.4412,3.6964 12.8764,7.4038 19.3066,11.1176l-0.001 2.9783 -17.799 10.2749 -6.8599 -3.8909 -0.0631 7.8879c-5.9354,3.422 -11.8718,6.8478 -17.8033,10.2742l-2.5759 -1.4891c0.0098,-8.3327 0.0081,-16.6621 0.0054,-24.9909l5.1513 2.9641 0.0016 0.0005z"/>
  </g>
  <g id="_2719647163520">
   <path class="fil1" d="M76.2495 72.3066l-13.5161 7.8083 3.6589 2.112c8.8815,-5.1311 17.7815,-10.2666 26.6701,-15.3967 -0.0049,-2.9282 -0.0147,-5.8553 -0.0125,-8.7835l12.0264 -6.9437 -3.6632 -2.1153c-4.0101,2.314 -8.018,4.6291 -12.0259,6.9426l0.0022 8.7873 -9.4755 5.4731 -3.6644 2.1158 0 0.0001z"/>
   <path class="fil1" d="M79.9139 70.1907l0 -5.3511 0 -0.1351 -0.0011 -0.1361 0.0011 -0.1361 0 -0.1362 -0.0011 -0.1361 0.0011 -0.0332 0 -3.893 0 -0.3093 0.3648 -0.3648c0.1339,-0.1437 0.2455,-0.2994 0.3419,-0.4698 0.1383,-0.2412 0.2456,-0.5026 0.3114,-0.7732 0.0708,-0.2826 0.103,-0.575 0.0997,-0.8663 -0.0044,-0.2853 -0.0419,-0.5717 -0.1116,-0.8472 -0.0719,-0.2771 -0.1683,-0.5483 -0.3006,-0.8031 -0.1361,-0.2613 -0.3043,-0.5052 -0.5069,-0.722 -0.1955,-0.2096 -0.4176,-0.3898 -0.6654,-0.5324 -0.3838,-0.2222 -0.8025,-0.3872 -1.2414,-0.4667 -0.4132,-0.0735 -0.8336,-0.0751 -1.2446,0.0169 -0.4155,0.0937 -0.8086,0.269 -1.1532,0.5183 -0.3523,0.2576 -0.6512,0.5886 -0.8652,0.9436l-0.0332 0.0566c-0.2096,0.354 -0.3523,0.746 -0.4193,1.1505 -0.0686,0.4002 -0.0626,0.8091 0.0234,1.2049 0.097,0.446 0.2881,0.8625 0.5625,1.2284 0.2357,0.3158 0.5254,0.5837 0.8499,0.8053l0.3223 0.2221 0.0016 0.6746 0 3.2266 -0.001 0 0 6.0066 0 2.1741 3.6643 -2.1158 0.0006 -0.001z"/>
   <path class="fil1" d="M89.3665 82.2258l7.0178 -4.0493 0.5009 0.1329c0.1911,0.0441 0.3811,0.0621 0.5772,0.0621 0.2793,-0.0022 0.5591,-0.0393 0.8265,-0.1166 0.2804,-0.0816 0.5493,-0.1987 0.8015,-0.3484 0.2433,-0.1432 0.4698,-0.3174 0.6795,-0.5249 0.2041,-0.196 0.3876,-0.4171 0.5395,-0.6545 0.1585,-0.2499 0.2864,-0.5189 0.373,-0.8004 0.0839,-0.2733 0.129,-0.557 0.129,-0.8439 -0.001,-0.4459 -0.0686,-0.8891 -0.2188,-1.3105 -0.14,-0.3937 -0.3507,-0.7585 -0.6338,-1.0667 -0.2902,-0.3147 -0.6376,-0.5646 -1.0285,-0.7377 -0.398,-0.1765 -0.8233,-0.2712 -1.2414,-0.2804l-0.0725 0.0021c-0.4099,-0.0043 -0.8216,0.0648 -1.2054,0.2091 -0.379,0.1405 -0.7313,0.3539 -1.0313,0.6262 -0.3397,0.3065 -0.6054,0.6779 -0.7845,1.0987 -0.1541,0.3632 -0.2413,0.7481 -0.2734,1.1402l-0.0294 0.3915 -8.5902 4.9547 3.6643 2.1158 0 0z"/>
   <path class="fil1" d="M116.6029 95.5601l-0.0011 -4.2312c-4.0084,-2.314 -8.0169,-4.628 -12.0248,-6.9421l-7.6085 4.3945c-6.3638,-3.6741 -12.732,-7.3384 -19.0926,-11.0158l-3.6622 2.112c7.5868,4.3825 15.1746,8.7622 22.7602,13.1436 2.5389,-1.4739 5.0582,-2.9369 7.6015,-4.4053l12.0269 6.9443 0.0006 0z"/>
   <path class="fil1" d="M66.7958 75.5968c-0.0115,0 -11.4133,-6.5876 -12.4963,-7.2138l-0.3544 0.1694c-0.355,0.1693 -0.7329,0.282 -1.1244,0.3305 -0.453,0.0555 -0.9065,0.0125 -1.3432,-0.128 -0.385,-0.1236 -0.747,-0.3201 -1.059,-0.5793 -0.3163,-0.2614 -0.5821,-0.5837 -0.7835,-0.9398l-0.0387 -0.062c-0.2004,-0.3665 -0.3305,-0.7814 -0.3779,-1.2137 -0.0462,-0.4247 -0.001,-0.8537 0.1269,-1.2615 0.1242,-0.4002 0.3338,-0.7634 0.6049,-1.0819 0.2908,-0.3403 0.6392,-0.6218 1.0269,-0.8434 0.2477,-0.1443 0.514,-0.2483 0.7917,-0.3114 0.2891,-0.0649 0.588,-0.0888 0.8831,-0.0768 0.2826,0.0125 0.5663,0.0648 0.8401,0.1404 0.275,0.0779 0.5418,0.1868 0.7911,0.3267 0.2521,0.1411 0.4901,0.3169 0.6981,0.5189 0.2009,0.1944 0.3778,0.4149 0.5183,0.6556 0.0969,0.1709 0.1797,0.3512 0.2358,0.539l0.1328 0.4933c2.9636,1.7118 5.9272,3.4242 8.8919,5.136l3.6567 2.1083 2.0445 1.1804 -3.6665 2.1142 0.0011 -0.0011z"/>
   <path class="fil1" d="M64.7611 70.1945c0.0011,-3.6485 0.0022,-7.2976 -0.0033,-10.9461l-7.6118 -4.3918c0,-4.6275 0.0011,-9.2572 0.0011,-13.8852l3.6632 -2.1159 0 13.888c2.5362,1.4652 5.074,2.9298 7.6118,4.394l-0.0049 15.1653 -3.6567 -2.1083 0.0006 0z"/>
   <path class="fil1" d="M64.7633 96.4388l-9.4712 5.4726 0.0027 8.7873c-4.0084,2.3151 -8.018,4.6291 -12.0248,6.9437l-3.6648 -2.1158 12.0253 -6.9448c0.0011,-2.9315 -0.0463,-5.8668 -0.0055,-8.7988 8.893,-5.1311 17.7783,-10.2454 26.6685,-15.3787l3.6583 2.112c-4.5126,2.602 -9.0143,5.1997 -13.5269,7.8072l-3.6611 2.1159 -0.0005 -0.0006z"/>
   <path class="fil1" d="M68.4243 94.323l0 2.1687 0 4.9542 0 0 -0.0005 4.9536 0.3218 0.2222c0.3261,0.2254 0.6163,0.4949 0.8521,0.809 0.2744,0.3659 0.4649,0.7825 0.5619,1.2284 0.0849,0.3975 0.0925,0.8069 0.0261,1.2082 -0.068,0.4013 -0.2129,0.7949 -0.4209,1.1461l-0.0321 0.0577c-0.2156,0.3567 -0.514,0.6861 -0.8673,0.942 -0.3431,0.251 -0.7367,0.4274 -1.1538,0.5221 -0.4083,0.091 -0.8292,0.091 -1.2409,0.0142 -0.4388,-0.0811 -0.8575,-0.2439 -1.2441,-0.4677 -0.2477,-0.1427 -0.4709,-0.3229 -0.6664,-0.5314 -0.1998,-0.2167 -0.3708,-0.4623 -0.5069,-0.7231 -0.1302,-0.2521 -0.2282,-0.5238 -0.2979,-0.7982 -0.0697,-0.276 -0.11,-0.5624 -0.1116,-0.8472 -0.0043,-0.2918 0.0289,-0.5859 0.0986,-0.8701 0.0669,-0.2706 0.1731,-0.5297 0.3098,-0.7715 0.1002,-0.1726 0.2118,-0.3288 0.3457,-0.4731l0.3626 -0.367 0 -0.3065 0.0022 -7.7904 0 -2.1654 3.6611 -2.1158 0.0005 0.001z"/>
   <path class="fil1" d="M55.3465 84.4108c-1.9639,1.1249 -5.2721,3.005 -6.7847,3.8772l-0.2673 0.1552 -0.4982 -0.135c-0.1906,-0.043 -0.3795,-0.0637 -0.5766,-0.0615 -0.2793,0.0021 -0.5603,0.0386 -0.8282,0.1159 -0.2815,0.0828 -0.5504,0.202 -0.802,0.3518 -0.245,0.1442 -0.4731,0.3196 -0.6757,0.5194 -0.2042,0.1965 -0.3909,0.4171 -0.5434,0.6566 -0.1573,0.2494 -0.2874,0.5195 -0.3745,0.8037 -0.0844,0.2733 -0.1291,0.5554 -0.128,0.8401 0,0.4465 0.0675,0.8908 0.2178,1.3117 0.1399,0.3947 0.3517,0.76 0.6365,1.0682 0.2875,0.3136 0.6365,0.5646 1.0252,0.7372 0.3997,0.1775 0.8336,0.2701 1.2463,0.2804l0.0692 -0.0021c0.41,0.0049 0.8216,-0.0648 1.2065,-0.2086 0.3806,-0.1399 0.7302,-0.3544 1.0307,-0.6267 0.3398,-0.3076 0.6028,-0.68 0.783,-1.1015 0.1552,-0.3609 0.2412,-0.7464 0.2728,-1.1374l0.0305 -0.3914 8.6207 -4.9395 -3.6605 -2.1137 -0.0001 0z"/>
   <path class="fil1" d="M47.714 73.6068c-2.5372,1.4701 -5.0728,2.9439 -7.6117,4.4091l-12.0275 -6.9442 0.001 4.2316c4.0085,2.3146 8.0164,4.6286 12.0248,6.9421l7.6074 -4.395 0.3735 0.2156c6.2261,3.5909 12.4838,7.1779 18.7284,10.8019l3.6605 -2.1131c-7.5873,-4.3847 -15.1697,-8.765 -22.7564,-13.147l0 -0.001z"/>
   <path class="fil1" d="M79.9182 96.4356l0.0011 10.9385 7.6118 4.3907c0,4.6291 0.0011,9.2577 0,13.8869l-3.6643 2.1163 0 -13.889c-2.5378,-1.4647 -5.0751,-2.9293 -7.6129,-4.3939 0,-4.4702 -0.0033,-10.2999 -0.0044,-15.1675l3.6687 2.118z"/>
   <path class="fil1" d="M90.3803 98.2449l0.3539 -0.1677c0.3561,-0.1694 0.7329,-0.2853 1.1249,-0.3327 0.4536,-0.0555 0.9077,-0.0125 1.3422,0.1269 0.386,0.1252 0.7459,0.3228 1.059,0.5815 0.3152,0.2597 0.5815,0.5804 0.7835,0.9376l0.0392 0.0642c0.1987,0.3648 0.3305,0.7813 0.3773,1.2137 0.0452,0.4241 0.0033,0.8499 -0.1252,1.2577 -0.1258,0.4018 -0.3349,0.765 -0.6071,1.0851 -0.2902,0.3403 -0.6408,0.6202 -1.029,0.8445 -0.2456,0.1421 -0.514,0.2456 -0.7934,0.3098 -0.2863,0.0659 -0.5847,0.0899 -0.8771,0.0768 -0.2859,-0.0109 -0.5679,-0.0621 -0.8407,-0.1405 -0.2755,-0.0784 -0.5428,-0.1845 -0.7927,-0.3261 -0.2521,-0.1427 -0.4895,-0.3174 -0.6997,-0.5183 -0.202,-0.1944 -0.3757,-0.4166 -0.5151,-0.6578 -0.0985,-0.1682 -0.1796,-0.3501 -0.2374,-0.5363l-0.1393 -0.4949 -2.4829 -1.4342 0 0 -6.403 -3.6986 -3.6687 -2.118 -2.026 -1.1706 3.6497 -2.1186 12.5071 7.2165 0.0005 0z"/>
  </g>
 </g>
</svg>
